<?xml version="1.0" encoding="UTF-8"?>
<svg width="156px" height="55px" viewBox="0 0 156 55" version="1.1" xmlns="http://www.w3.org/2000/svg" xmlns:xlink="http://www.w3.org/1999/xlink">
    <!-- Generator: Sketch 43.2 (39069) - http://www.bohemiancoding.com/sketch -->
    <title>Qush</title>
    <desc>Created with Sketch.</desc>
    <defs></defs>
    <g id="Website" stroke="none" stroke-width="1" fill="none" fill-rule="evenodd">
        <g id="Navbar" transform="translate(-198.000000, -120.000000)" fill="#303538">
            <path d="M221.04,167.808 C214.597301,167.808 209.146689,165.632022 204.688,161.28 C200.229311,156.927978 198,151.424033 198,144.768 C198,138.111967 200.229311,132.618688 204.688,128.288 C209.146689,123.957312 214.607968,121.792 221.072,121.792 C227.536032,121.792 232.975978,123.957312 237.392,128.288 C241.808022,132.618688 244.016,138.111967 244.016,144.768 C244.016,148.522685 243.258674,151.967984 241.744,155.104 C240.229326,158.240016 238.149347,160.853323 235.504,162.944 L244.656,174.72 L231.408,174.72 L225.968,167.296 C224.261325,167.637335 222.618675,167.808 221.04,167.808 Z M209.136,144.768 C209.136,148.693353 210.213323,151.829322 212.368,154.176 C214.522677,156.522678 217.402649,157.696 221.008,157.696 C224.613351,157.696 227.493323,156.522678 229.648,154.176 C231.802677,151.829322 232.88,148.693353 232.88,144.768 C232.88,140.842647 231.802677,137.706678 229.648,135.36 C227.493323,133.013322 224.613351,131.84 221.008,131.84 C217.402649,131.84 214.522677,133.013322 212.368,135.36 C210.213323,137.706678 209.136,140.842647 209.136,144.768 Z M276.336,132.416 L280.816,132.416 L280.816,167.36 L276.336,167.36 L276.336,161.664 C273.989322,165.888021 270.128027,168 264.752,168 C260.869314,168 257.62668,166.730679 255.024,164.192 C252.42132,161.653321 251.12,157.994691 251.12,153.216 L251.12,132.416 L255.536,132.416 L255.536,152.384 C255.536,156.224019 256.463991,159.146657 258.32,161.152 C260.176009,163.157343 262.714651,164.16 265.936,164.16 C269.157349,164.16 271.695991,163.157343 273.552,161.152 C275.408009,159.146657 276.336,156.224019 276.336,152.384 L276.336,132.416 Z M289.456,142.08 C289.456,139.178652 290.650655,136.73601 293.04,134.752 C295.429345,132.76799 298.479981,131.776 302.192,131.776 C305.904019,131.776 308.794656,132.746657 310.864,134.688 C312.933344,136.629343 314.074666,139.30665 314.288,142.72 L309.68,142.72 C309.594666,140.586656 308.86934,138.826674 307.504,137.44 C306.13866,136.053326 304.240012,135.36 301.808,135.36 C299.375988,135.36 297.466674,135.957327 296.08,137.152 C294.693326,138.346673 294,139.786658 294,141.472 C294,143.157342 294.511995,144.490662 295.536,145.472 C296.560005,146.453338 297.850659,147.114665 299.408,147.456 C300.965341,147.797335 302.650658,148.202664 304.464,148.672 C306.277342,149.141336 307.962659,149.642664 309.52,150.176 C311.077341,150.709336 312.367995,151.669326 313.392,153.056 C314.416005,154.442674 314.928,156.223989 314.928,158.4 C314.928,161.216014 313.754678,163.519991 311.408,165.312 C309.061322,167.104009 305.978686,168 302.16,168 C298.341314,168 295.322678,167.018676 293.104,165.056 C290.885322,163.093324 289.669334,160.426684 289.456,157.056 L294.064,157.056 C294.149334,159.232011 294.917326,161.00266 296.368,162.368 C297.818674,163.73334 299.813321,164.416 302.352,164.416 C304.890679,164.416 306.863993,163.872005 308.272,162.784 C309.680007,161.695995 310.384,160.298675 310.384,158.592 C310.384,156.885325 309.872005,155.541338 308.848,154.56 C307.823995,153.578662 306.533341,152.906668 304.976,152.544 C303.418659,152.181332 301.733342,151.765336 299.92,151.296 C298.106658,150.826664 296.421341,150.336003 294.864,149.824 C293.306659,149.311997 292.016005,148.394673 290.992,147.072 C289.967995,145.749327 289.456,144.085343 289.456,142.08 Z M328.048,120 L328.048,138.112 C330.394678,133.887979 334.255973,131.776 339.632,131.776 C343.514686,131.776 346.75732,133.045321 349.36,135.584 C351.96268,138.122679 353.264,141.781309 353.264,146.56 L353.264,167.36 L348.848,167.36 L348.848,147.392 C348.848,143.551981 347.920009,140.629343 346.064,138.624 C344.207991,136.618657 341.669349,135.616 338.448,135.616 C335.226651,135.616 332.688009,136.618657 330.832,138.624 C328.975991,140.629343 328.048,143.551981 328.048,147.392 L328.048,167.36 L323.568,167.36 L323.568,120 L328.048,120 Z" id="Qush"></path>
        </g>
    </g>
</svg>